<svg width="18.375000" height="21.000000" viewBox="0 0 18.375 21" fill="none" xmlns="http://www.w3.org/2000/svg" xmlns:xlink="http://www.w3.org/1999/xlink">
	<desc>
			Created with Pixso.
	</desc>
	<defs/>
	<path id="î»" d="M18.37 5.04L18.37 8.61L18.33 8.61C16.44 8.61 14.72 8.03 13.33 7.01L13.33 14.35C13.33 18.04 10.33 21 6.64 21C2.95 21 0 18.04 0 14.35C0 10.66 2.95 7.66 6.64 7.66C6.97 7.66 7.25 7.71 7.58 7.75L7.58 11.44C7.25 11.32 6.97 11.27 6.64 11.27C4.96 11.27 3.56 12.67 3.56 14.35C3.56 16.03 4.96 17.43 6.64 17.43C8.32 17.43 9.72 16.03 9.72 14.35L9.72 0L13.33 0L13.33 0.08C13.33 0.36 13.33 0.65 13.41 0.94C13.65 2.29 14.47 3.48 15.62 4.22C16.4 4.75 17.34 5.04 18.33 5.04L18.37 5.04Z" fill="#FFFFFF" fill-opacity="1.000000" fill-rule="evenodd"/>
</svg>
