<svg width="20.958984" height="17.021484" viewBox="0 0 20.959 17.0215" fill="none" xmlns="http://www.w3.org/2000/svg" xmlns:xlink="http://www.w3.org/1999/xlink">
	<desc>
			Created with Pixso.
	</desc>
	<defs/>
	<path id="" d="M20.95 2C20.38 2.87 19.64 3.6 18.82 4.22L18.82 4.79C18.82 10.5 14.51 17.02 6.6 17.02C4.14 17.02 1.88 16.32 0 15.09C0.32 15.13 0.65 15.17 1.02 15.17C3.03 15.17 4.88 14.47 6.35 13.33C4.47 13.28 2.87 12.05 2.33 10.33C2.62 10.37 2.87 10.41 3.15 10.41C3.52 10.41 3.93 10.33 4.26 10.25C2.29 9.84 0.82 8.12 0.82 6.02L0.82 5.98C1.39 6.31 2.09 6.48 2.78 6.52C1.59 5.74 0.86 4.42 0.86 2.95C0.86 2.13 1.06 1.39 1.43 0.77C3.56 3.36 6.76 5.08 10.33 5.29Q10.21 4.79 10.21 4.3C10.21 1.92 12.14 0 14.51 0C15.75 0 16.85 0.49 17.67 1.35C18.62 1.14 19.56 0.77 20.38 0.28C20.05 1.31 19.4 2.13 18.49 2.66C19.35 2.58 20.22 2.33 20.95 2Z" fill="#FFFFFF" fill-opacity="1.000000" fill-rule="evenodd"/>
</svg>
